<svg width="103" height="27" viewBox="0 0 103 27" fill="none" xmlns="http://www.w3.org/2000/svg">
<path d="M16.472 3.536H0.6V8.016H10.2L0.6 21.84V26H16.472V21.52H6.808L16.472 7.696V3.536ZM27.9185 12.272C29.7425 12.272 31.2785 13.392 31.2785 15.344H24.4305C24.7505 13.36 26.1265 12.272 27.9185 12.272ZM36.4625 20.08H30.6385C30.1905 21.04 29.3265 21.808 27.7905 21.808C26.0305 21.808 24.5905 20.72 24.3985 18.384H36.7825C36.8465 17.84 36.8785 17.296 36.8785 16.784C36.8785 11.344 33.1985 7.888 27.9825 7.888C22.6705 7.888 18.9585 11.408 18.9585 17.072C18.9585 22.736 22.7345 26.256 27.9825 26.256C32.4305 26.256 35.5985 23.568 36.4625 20.08ZM52.0853 26H57.5253V15.568C57.5253 10.768 54.7733 7.952 50.6453 7.952C48.2453 7.952 46.3253 9.008 45.2373 10.512V8.144H39.7653V26H45.2373V16.304C45.2373 13.872 46.5813 12.528 48.6613 12.528C50.7413 12.528 52.0853 13.872 52.0853 16.304V26ZM60.2398 17.04C60.2398 22.672 63.7278 26.256 68.1118 26.256C70.7358 26.256 72.6238 25.072 73.6158 23.44V26H79.0878V2.32H73.6158V10.608C72.5278 8.976 70.4798 7.888 68.1118 7.888C63.7278 7.888 60.2398 11.408 60.2398 17.04ZM73.6158 17.072C73.6158 19.92 71.7918 21.488 69.7118 21.488C67.6638 21.488 65.8078 19.888 65.8078 17.04C65.8078 14.192 67.6638 12.656 69.7118 12.656C71.7918 12.656 73.6158 14.224 73.6158 17.072ZM83.0465 26H88.5185V8.144H83.0465V26ZM85.7985 6.288C87.7185 6.288 89.0305 4.976 89.0305 3.344C89.0305 1.68 87.7185 0.367998 85.7985 0.367998C83.8465 0.367998 82.5345 1.68 82.5345 3.344C82.5345 4.976 83.8465 6.288 85.7985 6.288ZM93.348 19.792C93.348 24.432 95.94 26 99.652 26H102.436V21.36H100.484C99.268 21.36 98.82 20.912 98.82 19.856V12.688H102.404V8.144H98.82V3.792H93.348V8.144H91.172V12.688H93.348V19.792Z" fill="#172F53"/>
</svg>
